M48
METRIC,TZ
T1C0.800
T2C1.000
T3C1.001
T4C1.300
T5C3.500
%
G90
G05
T1
X67.31Y-69.215
X67.31Y-74.215
X69.215Y-85.805
X69.215Y-90.805
X69.215Y-123.825
X71.755Y-123.825
X74.295Y-123.825
X78.105Y-117.475
X78.105Y-122.475
X79.375Y-108.665
X79.375Y-113.665
X79.375Y-126.365
X84.455Y-114.935
X84.455Y-119.815
X88.9Y-85.344
X88.9Y-95.504
X89.535Y-126.365
X90.17Y-108.585
X90.17Y-113.585
X92.964Y-63.5
X92.964Y-66.04
X92.964Y-68.58
X94.615Y-93.345
X94.615Y-95.885
X94.615Y-98.425
X94.615Y-100.965
X94.615Y-103.505
X94.615Y-106.045
X94.615Y-108.585
X94.615Y-111.125
X94.615Y-113.665
X94.615Y-116.205
X94.615Y-118.745
X94.615Y-121.285
X94.615Y-123.825
X94.615Y-126.365
X98.552Y-72.136
X98.552Y-82.296
X102.235Y-93.345
X102.235Y-95.885
X102.235Y-98.425
X102.235Y-100.965
X102.235Y-103.505
X102.235Y-106.045
X102.235Y-108.585
X102.235Y-111.125
X102.235Y-113.665
X102.235Y-116.205
X102.235Y-118.745
X102.235Y-121.285
X102.235Y-123.825
X102.235Y-126.365
X105.744Y-58.928
X107.696Y-71.12
X107.696Y-124.46
X108.204Y-96.52
X110.744Y-58.928
X112.696Y-71.12
X112.696Y-124.46
X113.204Y-96.52
X116.84Y-53.34
X116.84Y-55.88
X116.84Y-58.42
X116.84Y-60.96
X116.84Y-63.5
X116.84Y-66.04
X116.84Y-68.58
X116.84Y-71.12
X116.84Y-78.74
X116.84Y-81.28
X116.84Y-83.82
X116.84Y-86.36
X116.84Y-88.9
X116.84Y-91.44
X116.84Y-93.98
X116.84Y-96.52
X116.84Y-104.14
X116.84Y-106.68
X116.84Y-109.22
X116.84Y-111.76
X116.84Y-114.3
X116.84Y-116.84
X116.84Y-119.38
X116.84Y-121.92
X124.46Y-53.34
X124.46Y-55.88
X124.46Y-58.42
X124.46Y-60.96
X124.46Y-63.5
X124.46Y-66.04
X124.46Y-68.58
X124.46Y-71.12
X124.46Y-78.74
X124.46Y-81.28
X124.46Y-83.82
X124.46Y-86.36
X124.46Y-88.9
X124.46Y-91.44
X124.46Y-93.98
X124.46Y-96.52
X124.46Y-104.14
X124.46Y-106.68
X124.46Y-109.22
X124.46Y-111.76
X124.46Y-114.3
X124.46Y-116.84
X124.46Y-119.38
X124.46Y-121.92
X134.62Y-53.34
X134.62Y-55.88
X134.62Y-58.42
X134.62Y-60.96
X134.62Y-63.5
X134.62Y-66.04
X134.62Y-68.58
X134.62Y-71.12
X134.62Y-73.66
X134.62Y-78.74
X134.62Y-81.28
X134.62Y-83.82
X134.62Y-86.36
X134.62Y-88.9
X134.62Y-91.44
X134.62Y-93.98
X134.62Y-96.52
X134.62Y-99.06
X134.62Y-104.14
X134.62Y-106.68
X134.62Y-109.22
X134.62Y-111.76
X134.62Y-114.3
X134.62Y-116.84
X134.62Y-119.38
X134.62Y-121.92
X134.62Y-124.46
X142.24Y-53.34
X142.24Y-55.88
X142.24Y-58.42
X142.24Y-60.96
X142.24Y-63.5
X142.24Y-66.04
X142.24Y-68.58
X142.24Y-71.12
X142.24Y-73.66
X142.24Y-78.74
X142.24Y-81.28
X142.24Y-83.82
X142.24Y-86.36
X142.24Y-88.9
X142.24Y-91.44
X142.24Y-93.98
X142.24Y-96.52
X142.24Y-99.06
X142.24Y-104.14
X142.24Y-106.68
X142.24Y-109.22
X142.24Y-111.76
X142.24Y-114.3
X142.24Y-116.84
X142.24Y-119.38
X142.24Y-121.92
X142.24Y-124.46
T2
X61.595Y-65.405
X61.595Y-67.945
X61.595Y-70.485
X61.595Y-73.025
X61.595Y-75.565
X61.595Y-88.265
X61.595Y-90.805
X61.595Y-93.345
X61.595Y-95.885
X61.595Y-98.425
X61.595Y-100.965
X61.595Y-103.505
X61.595Y-106.045
X61.595Y-108.585
X61.595Y-111.125
X61.595Y-113.665
X61.595Y-116.205
X61.595Y-118.745
X61.595Y-121.285
X61.595Y-123.825
X61.595Y-126.365
X74.676Y-58.42
X74.676Y-60.96
X74.676Y-63.5
X74.676Y-66.04
X76.272Y-74.168
X76.272Y-80.668
X80.264Y-58.42
X80.264Y-60.96
X80.264Y-63.5
X80.264Y-66.04
X80.772Y-74.168
X80.772Y-80.668
X85.852Y-58.42
X85.852Y-60.96
X85.852Y-63.5
X85.852Y-66.04
X93.98Y-53.848
X96.52Y-53.848
X99.06Y-53.848
X101.6Y-53.848
X104.14Y-53.848
X106.68Y-53.848
X149.86Y-60.96
X149.86Y-63.5
X149.86Y-66.04
X149.86Y-68.58
X149.86Y-71.12
X149.86Y-86.36
X149.86Y-88.9
X149.86Y-91.44
X149.86Y-93.98
X149.86Y-96.52
X149.86Y-111.76
X149.86Y-114.3
X149.86Y-116.84
X149.86Y-119.38
X149.86Y-121.92
X152.4Y-60.96
X152.4Y-63.5
X152.4Y-66.04
X152.4Y-68.58
X152.4Y-71.12
X152.4Y-86.36
X152.4Y-88.9
X152.4Y-91.44
X152.4Y-93.98
X152.4Y-96.52
X152.4Y-111.76
X152.4Y-114.3
X152.4Y-116.84
X152.4Y-119.38
X152.4Y-121.92
T3
X65.532Y-60.96
X66.548Y-79.248
X104.648Y-75.184
X107.696Y-112.776
X111.252Y-79.248
X112.268Y-104.648
X112.776Y-75.692
X113.792Y-100.584
T4
X74.295Y-85.805
X74.295Y-90.805
X84.295Y-88.305
T5
X68.58Y-54.864
X68.58Y-105.664
X150.876Y-54.864
X150.876Y-105.664
T0
M30
