G04 #@! TF.FileFunction,Copper,L1,Top,Signal*
%FSLAX46Y46*%
G04 Gerber Fmt 4.6, Leading zero omitted, Abs format (unit mm)*
G04 Created by KiCad (PCBNEW 4.0.7) date 04/10/18 15:15:30*
%MOMM*%
%LPD*%
G01*
G04 APERTURE LIST*
%ADD10C,0.100000*%
%ADD11C,2.499360*%
%ADD12R,2.400000X1.600000*%
%ADD13O,2.400000X1.600000*%
%ADD14C,4.800000*%
%ADD15R,1.700000X1.700000*%
%ADD16O,1.700000X1.700000*%
%ADD17C,2.340000*%
%ADD18C,1.600000*%
%ADD19C,1.520000*%
%ADD20R,1.520000X1.520000*%
%ADD21O,1.600000X1.600000*%
%ADD22C,1.700000*%
%ADD23C,1.500000*%
%ADD24C,0.450000*%
%ADD25C,0.250000*%
G04 APERTURE END LIST*
D10*
D11*
X66548000Y-79248000D03*
X104648000Y-75184000D03*
X107696000Y-112776000D03*
D12*
X134620000Y-78740000D03*
D13*
X142240000Y-99060000D03*
X134620000Y-81280000D03*
X142240000Y-96520000D03*
X134620000Y-83820000D03*
X142240000Y-93980000D03*
X134620000Y-86360000D03*
X142240000Y-91440000D03*
X134620000Y-88900000D03*
X142240000Y-88900000D03*
X134620000Y-91440000D03*
X142240000Y-86360000D03*
X134620000Y-93980000D03*
X142240000Y-83820000D03*
X134620000Y-96520000D03*
X142240000Y-81280000D03*
X134620000Y-99060000D03*
X142240000Y-78740000D03*
D14*
X68580000Y-105664000D03*
X150876000Y-105664000D03*
X150876000Y-54864000D03*
D12*
X94615000Y-93345000D03*
D13*
X102235000Y-126365000D03*
X94615000Y-95885000D03*
X102235000Y-123825000D03*
X94615000Y-98425000D03*
X102235000Y-121285000D03*
X94615000Y-100965000D03*
X102235000Y-118745000D03*
X94615000Y-103505000D03*
X102235000Y-116205000D03*
X94615000Y-106045000D03*
X102235000Y-113665000D03*
X94615000Y-108585000D03*
X102235000Y-111125000D03*
X94615000Y-111125000D03*
X102235000Y-108585000D03*
X94615000Y-113665000D03*
X102235000Y-106045000D03*
X94615000Y-116205000D03*
X102235000Y-103505000D03*
X94615000Y-118745000D03*
X102235000Y-100965000D03*
X94615000Y-121285000D03*
X102235000Y-98425000D03*
X94615000Y-123825000D03*
X102235000Y-95885000D03*
X94615000Y-126365000D03*
X102235000Y-93345000D03*
D15*
X152400000Y-121920000D03*
D16*
X149860000Y-121920000D03*
X152400000Y-119380000D03*
X149860000Y-119380000D03*
X152400000Y-116840000D03*
X149860000Y-116840000D03*
X152400000Y-114300000D03*
X149860000Y-114300000D03*
X152400000Y-111760000D03*
X149860000Y-111760000D03*
D12*
X134620000Y-53340000D03*
D13*
X142240000Y-73660000D03*
X134620000Y-55880000D03*
X142240000Y-71120000D03*
X134620000Y-58420000D03*
X142240000Y-68580000D03*
X134620000Y-60960000D03*
X142240000Y-66040000D03*
X134620000Y-63500000D03*
X142240000Y-63500000D03*
X134620000Y-66040000D03*
X142240000Y-60960000D03*
X134620000Y-68580000D03*
X142240000Y-58420000D03*
X134620000Y-71120000D03*
X142240000Y-55880000D03*
X134620000Y-73660000D03*
X142240000Y-53340000D03*
D17*
X74295000Y-85805000D03*
X84295000Y-88305000D03*
X74295000Y-90805000D03*
D15*
X61595000Y-88265000D03*
D16*
X61595000Y-90805000D03*
X61595000Y-93345000D03*
X61595000Y-95885000D03*
X61595000Y-98425000D03*
X61595000Y-100965000D03*
X61595000Y-103505000D03*
X61595000Y-106045000D03*
X61595000Y-108585000D03*
X61595000Y-111125000D03*
X61595000Y-113665000D03*
X61595000Y-116205000D03*
X61595000Y-118745000D03*
X61595000Y-121285000D03*
X61595000Y-123825000D03*
X61595000Y-126365000D03*
D18*
X113204000Y-96520000D03*
X108204000Y-96520000D03*
X107696000Y-124460000D03*
X112696000Y-124460000D03*
D15*
X61595000Y-65405000D03*
D16*
X61595000Y-67945000D03*
X61595000Y-70485000D03*
X61595000Y-73025000D03*
X61595000Y-75565000D03*
D15*
X152400000Y-71120000D03*
D16*
X149860000Y-71120000D03*
X152400000Y-68580000D03*
X149860000Y-68580000D03*
X152400000Y-66040000D03*
X149860000Y-66040000D03*
X152400000Y-63500000D03*
X149860000Y-63500000D03*
X152400000Y-60960000D03*
X149860000Y-60960000D03*
D15*
X152400000Y-96520000D03*
D16*
X149860000Y-96520000D03*
X152400000Y-93980000D03*
X149860000Y-93980000D03*
X152400000Y-91440000D03*
X149860000Y-91440000D03*
X152400000Y-88900000D03*
X149860000Y-88900000D03*
X152400000Y-86360000D03*
X149860000Y-86360000D03*
D19*
X71755000Y-123825000D03*
X69215000Y-123825000D03*
D20*
X74295000Y-123825000D03*
D18*
X88900000Y-85344000D03*
D21*
X88900000Y-95504000D03*
D18*
X79375000Y-126365000D03*
D21*
X89535000Y-126365000D03*
D22*
X76272000Y-80668000D03*
X76272000Y-74168000D03*
X80772000Y-80668000D03*
X80772000Y-74168000D03*
D12*
X134620000Y-104140000D03*
D13*
X142240000Y-124460000D03*
X134620000Y-106680000D03*
X142240000Y-121920000D03*
X134620000Y-109220000D03*
X142240000Y-119380000D03*
X134620000Y-111760000D03*
X142240000Y-116840000D03*
X134620000Y-114300000D03*
X142240000Y-114300000D03*
X134620000Y-116840000D03*
X142240000Y-111760000D03*
X134620000Y-119380000D03*
X142240000Y-109220000D03*
X134620000Y-121920000D03*
X142240000Y-106680000D03*
X134620000Y-124460000D03*
X142240000Y-104140000D03*
D23*
X84455000Y-114935000D03*
X84455000Y-119815000D03*
D18*
X112696000Y-71120000D03*
X107696000Y-71120000D03*
X90170000Y-108585000D03*
X90170000Y-113585000D03*
X79375000Y-113665000D03*
X79375000Y-108665000D03*
X78105000Y-117475000D03*
X78105000Y-122475000D03*
X69215000Y-90805000D03*
X69215000Y-85805000D03*
D19*
X92964000Y-66040000D03*
X92964000Y-68580000D03*
D20*
X92964000Y-63500000D03*
D18*
X98552000Y-72136000D03*
D21*
X98552000Y-82296000D03*
D15*
X106680000Y-53848000D03*
D16*
X104140000Y-53848000D03*
X101600000Y-53848000D03*
X99060000Y-53848000D03*
X96520000Y-53848000D03*
X93980000Y-53848000D03*
D18*
X110744000Y-58928000D03*
X105744000Y-58928000D03*
X67310000Y-69215000D03*
X67310000Y-74215000D03*
D12*
X124460000Y-71120000D03*
D13*
X116840000Y-53340000D03*
X124460000Y-68580000D03*
X116840000Y-55880000D03*
X124460000Y-66040000D03*
X116840000Y-58420000D03*
X124460000Y-63500000D03*
X116840000Y-60960000D03*
X124460000Y-60960000D03*
X116840000Y-63500000D03*
X124460000Y-58420000D03*
X116840000Y-66040000D03*
X124460000Y-55880000D03*
X116840000Y-68580000D03*
X124460000Y-53340000D03*
X116840000Y-71120000D03*
D12*
X124460000Y-96520000D03*
D13*
X116840000Y-78740000D03*
X124460000Y-93980000D03*
X116840000Y-81280000D03*
X124460000Y-91440000D03*
X116840000Y-83820000D03*
X124460000Y-88900000D03*
X116840000Y-86360000D03*
X124460000Y-86360000D03*
X116840000Y-88900000D03*
X124460000Y-83820000D03*
X116840000Y-91440000D03*
X124460000Y-81280000D03*
X116840000Y-93980000D03*
X124460000Y-78740000D03*
X116840000Y-96520000D03*
D12*
X124460000Y-121920000D03*
D13*
X116840000Y-104140000D03*
X124460000Y-119380000D03*
X116840000Y-106680000D03*
X124460000Y-116840000D03*
X116840000Y-109220000D03*
X124460000Y-114300000D03*
X116840000Y-111760000D03*
X124460000Y-111760000D03*
X116840000Y-114300000D03*
X124460000Y-109220000D03*
X116840000Y-116840000D03*
X124460000Y-106680000D03*
X116840000Y-119380000D03*
X124460000Y-104140000D03*
X116840000Y-121920000D03*
D15*
X74676000Y-58420000D03*
D16*
X74676000Y-60960000D03*
X74676000Y-63500000D03*
X74676000Y-66040000D03*
D15*
X85852000Y-58420000D03*
D16*
X85852000Y-60960000D03*
X85852000Y-63500000D03*
X85852000Y-66040000D03*
D15*
X80264000Y-58420000D03*
D16*
X80264000Y-60960000D03*
X80264000Y-63500000D03*
X80264000Y-66040000D03*
D11*
X65532000Y-60960000D03*
X112776000Y-75692000D03*
X111252000Y-79248000D03*
X113792000Y-100584000D03*
X112268000Y-104648000D03*
D14*
X68580000Y-54864000D03*
D24*
X61595000Y-75565000D02*
X65278000Y-79248000D01*
X65278000Y-79248000D02*
X66548000Y-79248000D01*
X106896001Y-71919999D02*
X106896001Y-75184000D01*
X106896001Y-75184000D02*
X106896001Y-95212001D01*
X104648000Y-75184000D02*
X106896001Y-75184000D01*
X134620000Y-124460000D02*
X135020000Y-124460000D01*
X135020000Y-124460000D02*
X138610000Y-120870000D01*
X138610000Y-120870000D02*
X138610000Y-101600000D01*
D25*
X102235000Y-108585000D02*
X102635000Y-108585000D01*
X102635000Y-108585000D02*
X106826000Y-112776000D01*
X106826000Y-112776000D02*
X107696000Y-112776000D01*
X107696000Y-112776000D02*
X105928686Y-112776000D01*
X103864676Y-114840010D02*
X98730010Y-114840010D01*
X105928686Y-112776000D02*
X103864676Y-114840010D01*
X98730010Y-114840010D02*
X96190010Y-112300010D01*
X78105000Y-122475000D02*
X78904999Y-123274999D01*
X93918275Y-122460010D02*
X95501705Y-122460010D01*
X78904999Y-123274999D02*
X93103286Y-123274999D01*
X93103286Y-123274999D02*
X93918275Y-122460010D01*
X95501705Y-122460010D02*
X96190010Y-121771705D01*
X96190010Y-121771705D02*
X96190010Y-112300010D01*
X96190010Y-112300010D02*
X95015000Y-111125000D01*
X95015000Y-111125000D02*
X94615000Y-111125000D01*
D24*
X134620000Y-124460000D02*
X134620000Y-125710000D01*
X152400000Y-123220000D02*
X152400000Y-121920000D01*
X134620000Y-125710000D02*
X134645010Y-125735010D01*
X134645010Y-125735010D02*
X149884990Y-125735010D01*
X149884990Y-125735010D02*
X152400000Y-123220000D01*
X124460000Y-53340000D02*
X126110000Y-53340000D01*
X126110000Y-53340000D02*
X127541990Y-51908010D01*
X127541990Y-51908010D02*
X136043012Y-51908010D01*
X136043012Y-51908010D02*
X136295010Y-52160008D01*
X136295010Y-72384990D02*
X135020000Y-73660000D01*
X136295010Y-52160008D02*
X136295010Y-72384990D01*
X135020000Y-73660000D02*
X134620000Y-73660000D01*
X124460000Y-53340000D02*
X119043136Y-53340000D01*
X119043136Y-53340000D02*
X117768126Y-52064990D01*
X115911874Y-52064990D02*
X110744000Y-57232864D01*
X117768126Y-52064990D02*
X115911874Y-52064990D01*
X110744000Y-57232864D02*
X110744000Y-57796630D01*
X110744000Y-57796630D02*
X110744000Y-58928000D01*
X134620000Y-73660000D02*
X136270000Y-73660000D01*
X136270000Y-73660000D02*
X136295010Y-73685010D01*
X136295010Y-73685010D02*
X136295010Y-97784990D01*
X136295010Y-97784990D02*
X135020000Y-99060000D01*
X135020000Y-99060000D02*
X134620000Y-99060000D01*
X112696000Y-124460000D02*
X121920000Y-124460000D01*
X121920000Y-124460000D02*
X134620000Y-124460000D01*
X124460000Y-104140000D02*
X124060000Y-104140000D01*
X124060000Y-104140000D02*
X121920000Y-106280000D01*
X121920000Y-106280000D02*
X121920000Y-124460000D01*
X124060000Y-53340000D02*
X124460000Y-53340000D01*
X110744000Y-58928000D02*
X107696000Y-61976000D01*
X107696000Y-61976000D02*
X107696000Y-71120000D01*
X93980000Y-53848000D02*
X93980000Y-63494000D01*
X93980000Y-63494000D02*
X93974000Y-63500000D01*
X93974000Y-63500000D02*
X92964000Y-63500000D01*
X107696000Y-71120000D02*
X106896001Y-71919999D01*
X107404001Y-95720001D02*
X108204000Y-96520000D01*
X106896001Y-95212001D02*
X107404001Y-95720001D01*
X85852000Y-60960000D02*
X88392000Y-63500000D01*
X88392000Y-63500000D02*
X92964000Y-63500000D01*
X69596000Y-71929000D02*
X69596000Y-66040000D01*
X69596000Y-66040000D02*
X74676000Y-60960000D01*
X67310000Y-74215000D02*
X69596000Y-71929000D01*
X80264000Y-60960000D02*
X85852000Y-60960000D01*
X74676000Y-60960000D02*
X80264000Y-60960000D01*
X69215000Y-85805000D02*
X62955000Y-85805000D01*
X62955000Y-85805000D02*
X61595000Y-87165000D01*
X61595000Y-87165000D02*
X61595000Y-88265000D01*
X102235000Y-108585000D02*
X101835000Y-108585000D01*
X124460000Y-78740000D02*
X124060000Y-78740000D01*
X76272000Y-80668000D02*
X76272000Y-83828000D01*
X76272000Y-83828000D02*
X74295000Y-85805000D01*
X61595000Y-75565000D02*
X62945000Y-74215000D01*
X62945000Y-74215000D02*
X67310000Y-74215000D01*
X152400000Y-119380000D02*
X152400000Y-116840000D01*
X152400000Y-121920000D02*
X152400000Y-120820000D01*
X152400000Y-120820000D02*
X152400000Y-119380000D01*
X148420000Y-101600000D02*
X138610000Y-101600000D01*
X138610000Y-101600000D02*
X136070000Y-99060000D01*
X136070000Y-99060000D02*
X134620000Y-99060000D01*
X152400000Y-96520000D02*
X152400000Y-97620000D01*
X152400000Y-97620000D02*
X148420000Y-101600000D01*
X134620000Y-99060000D02*
X128490000Y-99060000D01*
X128490000Y-99060000D02*
X124460000Y-103090000D01*
X124460000Y-103090000D02*
X124460000Y-104140000D01*
X134620000Y-73660000D02*
X128490000Y-73660000D01*
X128490000Y-73660000D02*
X124460000Y-77690000D01*
X124460000Y-77690000D02*
X124460000Y-78740000D01*
X79375000Y-108665000D02*
X80174999Y-107865001D01*
X80174999Y-107865001D02*
X84450001Y-107865001D01*
X84450001Y-107865001D02*
X89370001Y-112785001D01*
X89370001Y-112785001D02*
X90170000Y-113585000D01*
X90170000Y-113585000D02*
X92630000Y-111125000D01*
X92630000Y-111125000D02*
X94615000Y-111125000D01*
X76755000Y-123825000D02*
X74295000Y-123825000D01*
X78105000Y-122475000D02*
X76755000Y-123825000D01*
X74295000Y-85805000D02*
X69215000Y-85805000D01*
X61595000Y-83185000D02*
X61595000Y-85725000D01*
X61595000Y-85725000D02*
X61595000Y-88265000D01*
X61595000Y-75565000D02*
X61595000Y-83185000D01*
D25*
X88900000Y-85344000D02*
X88900000Y-88030000D01*
X88900000Y-88030000D02*
X94215000Y-93345000D01*
X94215000Y-93345000D02*
X94615000Y-93345000D01*
X80772000Y-80668000D02*
X84224000Y-80668000D01*
X84224000Y-80668000D02*
X88900000Y-85344000D01*
X95100000Y-92860000D02*
X94615000Y-93345000D01*
X99060000Y-85852000D02*
X99060000Y-98190000D01*
X99060000Y-98190000D02*
X101835000Y-100965000D01*
X101835000Y-100965000D02*
X102235000Y-100965000D01*
X97376999Y-84168999D02*
X99060000Y-85852000D01*
X85852000Y-63500000D02*
X87256999Y-64904999D01*
X87256999Y-64904999D02*
X93508801Y-64904999D01*
X93508801Y-64904999D02*
X99727001Y-71123199D01*
X99727001Y-71123199D02*
X99727001Y-79381997D01*
X99727001Y-79381997D02*
X97376999Y-81731999D01*
X97376999Y-81731999D02*
X97376999Y-84168999D01*
X94615000Y-100965000D02*
X64135000Y-100965000D01*
X64135000Y-100965000D02*
X61595000Y-98425000D01*
X102235000Y-103505000D02*
X101835000Y-103505000D01*
X101835000Y-103505000D02*
X96876991Y-98546991D01*
X93661879Y-67444999D02*
X89070001Y-67444999D01*
X96876991Y-98546991D02*
X96876991Y-70660111D01*
X96876991Y-70660111D02*
X93661879Y-67444999D01*
X89070001Y-67444999D02*
X86350003Y-64725001D01*
X86350003Y-64725001D02*
X81489001Y-64725001D01*
X81113999Y-64349999D02*
X80264000Y-63500000D01*
X81489001Y-64725001D02*
X81113999Y-64349999D01*
X102235000Y-103505000D02*
X102635000Y-103505000D01*
X94615000Y-103505000D02*
X93165000Y-103505000D01*
X93165000Y-103505000D02*
X91474999Y-101814999D01*
X91474999Y-101814999D02*
X62444999Y-101814999D01*
X62444999Y-101814999D02*
X61595000Y-100965000D01*
X116840000Y-88900000D02*
X118290000Y-88900000D01*
X118290000Y-88900000D02*
X118915020Y-88274980D01*
X118915020Y-88274980D02*
X118915020Y-81293305D01*
X118915020Y-81293305D02*
X117726705Y-80104990D01*
X117726705Y-80104990D02*
X114784461Y-80104990D01*
X110744000Y-76064529D02*
X110744000Y-69196000D01*
X116440000Y-63500000D02*
X116840000Y-63500000D01*
X114784461Y-80104990D02*
X110744000Y-76064529D01*
X110744000Y-69196000D02*
X116440000Y-63500000D01*
X117240000Y-88900000D02*
X116840000Y-88900000D01*
X102235000Y-121285000D02*
X112873285Y-121285000D01*
X112873285Y-121285000D02*
X116143275Y-118015010D01*
X116143275Y-118015010D02*
X117726705Y-118015010D01*
X117726705Y-118015010D02*
X118415010Y-117326705D01*
X118415010Y-117326705D02*
X118415010Y-115475010D01*
X118415010Y-115475010D02*
X117240000Y-114300000D01*
X117240000Y-114300000D02*
X116840000Y-114300000D01*
X111252000Y-100613715D02*
X111252000Y-94088000D01*
X111252000Y-94088000D02*
X116440000Y-88900000D01*
X116440000Y-88900000D02*
X116840000Y-88900000D01*
X116840000Y-114300000D02*
X118290000Y-114300000D01*
X118290000Y-114300000D02*
X118915020Y-113674980D01*
X118915020Y-113674980D02*
X118915020Y-106693305D01*
X118915020Y-106693305D02*
X117726705Y-105504990D01*
X116143275Y-105504990D02*
X111252000Y-100613715D01*
X117726705Y-105504990D02*
X116143275Y-105504990D01*
X116440000Y-114300000D02*
X116840000Y-114300000D01*
X102235000Y-121285000D02*
X102713285Y-121285000D01*
X102235000Y-121285000D02*
X101835000Y-121285000D01*
X94615000Y-98425000D02*
X64135000Y-98425000D01*
X64135000Y-98425000D02*
X61595000Y-95885000D01*
X152400000Y-114300000D02*
X153625001Y-115525001D01*
X153625001Y-115525001D02*
X153625001Y-123070001D01*
X153625001Y-123070001D02*
X150330002Y-126365000D01*
X103685000Y-126365000D02*
X102235000Y-126365000D01*
X150330002Y-126365000D02*
X103685000Y-126365000D01*
X75311000Y-106045000D02*
X67691000Y-113665000D01*
X67691000Y-113665000D02*
X61595000Y-113665000D01*
X94615000Y-106045000D02*
X75311000Y-106045000D01*
X152400000Y-111760000D02*
X154125011Y-113485011D01*
X100659990Y-125000010D02*
X101835000Y-123825000D01*
X154125011Y-113485011D02*
X154125011Y-123277111D01*
X101835000Y-123825000D02*
X102235000Y-123825000D01*
X154125011Y-123277111D02*
X149862112Y-127540010D01*
X149862112Y-127540010D02*
X101348295Y-127540010D01*
X101348295Y-127540010D02*
X100659990Y-126851705D01*
X100659990Y-126851705D02*
X100659990Y-125000010D01*
X152400000Y-111760000D02*
X151673002Y-111760000D01*
X61595000Y-116205000D02*
X64040001Y-118650001D01*
X64040001Y-118650001D02*
X81624999Y-118650001D01*
X81624999Y-118650001D02*
X83914999Y-120940001D01*
X83914999Y-120940001D02*
X92019999Y-120940001D01*
X92019999Y-120940001D02*
X94215000Y-118745000D01*
X94215000Y-118745000D02*
X94615000Y-118745000D01*
X112268000Y-83820000D02*
X108871001Y-80423001D01*
X108871001Y-80423001D02*
X108871001Y-65988999D01*
X108871001Y-65988999D02*
X116440000Y-58420000D01*
X116440000Y-58420000D02*
X116840000Y-58420000D01*
X112268000Y-83820000D02*
X116840000Y-83820000D01*
X116840000Y-109220000D02*
X108712000Y-109220000D01*
X108712000Y-109220000D02*
X105410000Y-109220000D01*
X112268000Y-83820000D02*
X109379001Y-86708999D01*
X109379001Y-86708999D02*
X109379001Y-108552999D01*
X109379001Y-108552999D02*
X108712000Y-109220000D01*
X105410000Y-109220000D02*
X103685000Y-107495000D01*
X103685000Y-107495000D02*
X103685000Y-107095000D01*
X103685000Y-107095000D02*
X102635000Y-106045000D01*
X102635000Y-106045000D02*
X102235000Y-106045000D01*
X116440000Y-109220000D02*
X116840000Y-109220000D01*
X112903000Y-118745000D02*
X114808000Y-116840000D01*
X114808000Y-116840000D02*
X116840000Y-116840000D01*
X102235000Y-118745000D02*
X112903000Y-118745000D01*
X102235000Y-118745000D02*
X101835000Y-118745000D01*
X102235000Y-118745000D02*
X102635000Y-118745000D01*
X116440000Y-116840000D02*
X116840000Y-116840000D01*
X116840000Y-116840000D02*
X117240000Y-116840000D01*
X61595000Y-121285000D02*
X68624800Y-121285000D01*
X68624800Y-121285000D02*
X70619999Y-123280199D01*
X70619999Y-123280199D02*
X70619999Y-124369801D01*
X70619999Y-124369801D02*
X73790199Y-127540001D01*
X73790199Y-127540001D02*
X86620997Y-127540001D01*
X93165000Y-123825000D02*
X94615000Y-123825000D01*
X86620997Y-127540001D02*
X90335998Y-123825000D01*
X90335998Y-123825000D02*
X93165000Y-123825000D01*
X109371011Y-79907011D02*
X109371011Y-68028989D01*
X116440000Y-60960000D02*
X116840000Y-60960000D01*
X109371011Y-68028989D02*
X116440000Y-60960000D01*
X111919010Y-82455010D02*
X109371011Y-79907011D01*
X116840000Y-86360000D02*
X118290000Y-86360000D01*
X118290000Y-86360000D02*
X118415010Y-86234990D01*
X118415010Y-83333295D02*
X117536725Y-82455010D01*
X118415010Y-86234990D02*
X118415010Y-83333295D01*
X117536725Y-82455010D02*
X111919010Y-82455010D01*
X110236000Y-105075002D02*
X110236000Y-92564000D01*
X110236000Y-92564000D02*
X116440000Y-86360000D01*
X116440000Y-86360000D02*
X116840000Y-86360000D01*
X116840000Y-111760000D02*
X118290000Y-111760000D01*
X118290000Y-111760000D02*
X118415010Y-111634990D01*
X118415010Y-111634990D02*
X118415010Y-108733295D01*
X118415010Y-108733295D02*
X117536725Y-107855010D01*
X117536725Y-107855010D02*
X113016008Y-107855010D01*
X113016008Y-107855010D02*
X110236000Y-105075002D01*
X117240000Y-111760000D02*
X116840000Y-111760000D01*
X116840000Y-86360000D02*
X117240000Y-86360000D01*
X102235000Y-116205000D02*
X112395000Y-116205000D01*
X112395000Y-116205000D02*
X115390000Y-113210000D01*
X115390000Y-113210000D02*
X115390000Y-112810000D01*
X115390000Y-112810000D02*
X116440000Y-111760000D01*
X116440000Y-111760000D02*
X116840000Y-111760000D01*
X116840000Y-111760000D02*
X116840000Y-111281715D01*
X94615000Y-121285000D02*
X93165000Y-121285000D01*
X93165000Y-121285000D02*
X93009989Y-121440011D01*
X93009989Y-121440011D02*
X78809013Y-121440011D01*
X78809013Y-121440011D02*
X76964001Y-119594999D01*
X76964001Y-119594999D02*
X62444999Y-119594999D01*
X62444999Y-119594999D02*
X61595000Y-118745000D01*
X89535000Y-126365000D02*
X94615000Y-126365000D01*
X95015000Y-126365000D02*
X94615000Y-126365000D01*
X99060000Y-53848000D02*
X100576010Y-55364010D01*
X101835000Y-95885000D02*
X102235000Y-95885000D01*
X100576010Y-55364010D02*
X100576010Y-94626010D01*
X100576010Y-94626010D02*
X101835000Y-95885000D01*
X102635000Y-95885000D02*
X102235000Y-95885000D01*
X94615000Y-95885000D02*
X94215000Y-95885000D01*
X73450999Y-64725001D02*
X73826001Y-64349999D01*
X94215000Y-95885000D02*
X73450999Y-75120999D01*
X73450999Y-75120999D02*
X73450999Y-64725001D01*
X73826001Y-64349999D02*
X74676000Y-63500000D01*
X94615000Y-95885000D02*
X94175998Y-95885000D01*
X95015000Y-95885000D02*
X94615000Y-95885000D01*
X102235000Y-93345000D02*
X102235000Y-54483000D01*
X102235000Y-54483000D02*
X101600000Y-53848000D01*
X102635000Y-93345000D02*
X102235000Y-93345000D01*
X152400000Y-71120000D02*
X152400000Y-72220000D01*
X152400000Y-72220000D02*
X145880000Y-78740000D01*
X145880000Y-78740000D02*
X143690000Y-78740000D01*
X143690000Y-78740000D02*
X142240000Y-78740000D01*
X142240000Y-71120000D02*
X149860000Y-71120000D01*
X152400000Y-68580000D02*
X153625001Y-69805001D01*
X153625001Y-69805001D02*
X153625001Y-72270001D01*
X143690000Y-81280000D02*
X142240000Y-81280000D01*
X153625001Y-72270001D02*
X144615002Y-81280000D01*
X144615002Y-81280000D02*
X143690000Y-81280000D01*
X142240000Y-68580000D02*
X149860000Y-68580000D01*
X142240000Y-53340000D02*
X142640000Y-53340000D01*
X142640000Y-53340000D02*
X147727990Y-58427990D01*
X153249999Y-65190001D02*
X152400000Y-66040000D01*
X147727990Y-58427990D02*
X152388112Y-58427990D01*
X152388112Y-58427990D02*
X154125011Y-60164889D01*
X154125011Y-64314989D02*
X153249999Y-65190001D01*
X154125011Y-60164889D02*
X154125011Y-64314989D01*
X142240000Y-66040000D02*
X149860000Y-66040000D01*
X146738000Y-58928000D02*
X152181002Y-58928000D01*
X153625001Y-60371999D02*
X153625001Y-62274999D01*
X152181002Y-58928000D02*
X153625001Y-60371999D01*
X153625001Y-62274999D02*
X153249999Y-62650001D01*
X153249999Y-62650001D02*
X152400000Y-63500000D01*
X142240000Y-55880000D02*
X143690000Y-55880000D01*
X143690000Y-55880000D02*
X146738000Y-58928000D01*
X142240000Y-63500000D02*
X149860000Y-63500000D01*
X144780000Y-58420000D02*
X146094999Y-59734999D01*
X146094999Y-59734999D02*
X151174999Y-59734999D01*
X151174999Y-59734999D02*
X151550001Y-60110001D01*
X151550001Y-60110001D02*
X152400000Y-60960000D01*
X142240000Y-58420000D02*
X144780000Y-58420000D01*
X142240000Y-58420000D02*
X141840000Y-58420000D01*
X142240000Y-60960000D02*
X149860000Y-60960000D01*
X142240000Y-96520000D02*
X149860000Y-96520000D01*
X142240000Y-93980000D02*
X149860000Y-93980000D01*
X152400000Y-91440000D02*
X153625001Y-92665001D01*
X153625001Y-92665001D02*
X153625001Y-97670001D01*
X153625001Y-97670001D02*
X144615002Y-106680000D01*
X144615002Y-106680000D02*
X143690000Y-106680000D01*
X143690000Y-106680000D02*
X142240000Y-106680000D01*
X142240000Y-91440000D02*
X149860000Y-91440000D01*
X142240000Y-109220000D02*
X143690000Y-109220000D01*
X154940000Y-108204000D02*
X154940000Y-91440000D01*
X143690000Y-109220000D02*
X144198000Y-109728000D01*
X144198000Y-109728000D02*
X153416000Y-109728000D01*
X153416000Y-109728000D02*
X154940000Y-108204000D01*
X154940000Y-91440000D02*
X152400000Y-88900000D01*
X142240000Y-88900000D02*
X149860000Y-88900000D01*
X142240000Y-83820000D02*
X149860000Y-83820000D01*
X149860000Y-83820000D02*
X152400000Y-86360000D01*
X142240000Y-86360000D02*
X149860000Y-86360000D01*
X142240000Y-121920000D02*
X149860000Y-121920000D01*
X142240000Y-119380000D02*
X149860000Y-119380000D01*
X142240000Y-116840000D02*
X149860000Y-116840000D01*
X142240000Y-114300000D02*
X149860000Y-114300000D01*
X142240000Y-111760000D02*
X149860000Y-111760000D01*
X71755000Y-123825000D02*
X74295000Y-126365000D01*
X74295000Y-126365000D02*
X79375000Y-126365000D01*
X66675000Y-126365000D02*
X61595000Y-126365000D01*
X69215000Y-123825000D02*
X66675000Y-126365000D01*
X84295000Y-88305000D02*
X79255000Y-93345000D01*
X79255000Y-93345000D02*
X61595000Y-93345000D01*
X134620000Y-71120000D02*
X124460000Y-71120000D01*
X117240000Y-53340000D02*
X116840000Y-53340000D01*
X124460000Y-68580000D02*
X134620000Y-68580000D01*
X134620000Y-66040000D02*
X124460000Y-66040000D01*
X124460000Y-63500000D02*
X134620000Y-63500000D01*
X124460000Y-60960000D02*
X134620000Y-60960000D01*
X124460000Y-58420000D02*
X134620000Y-58420000D01*
X124460000Y-55880000D02*
X134620000Y-55880000D01*
X134620000Y-53340000D02*
X133170000Y-53340000D01*
X133170000Y-53340000D02*
X131805010Y-54704990D01*
X131805010Y-54704990D02*
X123573295Y-54704990D01*
X123573295Y-54704990D02*
X118915020Y-59363265D01*
X118915020Y-59363265D02*
X118915020Y-66904980D01*
X118915020Y-66904980D02*
X117240000Y-68580000D01*
X117240000Y-68580000D02*
X116840000Y-68580000D01*
X124460000Y-96520000D02*
X134620000Y-96520000D01*
X124460000Y-93980000D02*
X134620000Y-93980000D01*
X124460000Y-91440000D02*
X134620000Y-91440000D01*
X124460000Y-88900000D02*
X134620000Y-88900000D01*
X124460000Y-86360000D02*
X134620000Y-86360000D01*
X124460000Y-83820000D02*
X134620000Y-83820000D01*
X124460000Y-81280000D02*
X134620000Y-81280000D01*
X116840000Y-93980000D02*
X117240000Y-93980000D01*
X117240000Y-93980000D02*
X122884990Y-88335010D01*
X122884990Y-88335010D02*
X122884990Y-80793295D01*
X122884990Y-80793295D02*
X123763275Y-79915010D01*
X134620000Y-78740000D02*
X133170000Y-78740000D01*
X133170000Y-78740000D02*
X131994990Y-79915010D01*
X131994990Y-79915010D02*
X123763275Y-79915010D01*
X124460000Y-121920000D02*
X134620000Y-121920000D01*
X134620000Y-119380000D02*
X124460000Y-119380000D01*
X134620000Y-116840000D02*
X124460000Y-116840000D01*
X134620000Y-114300000D02*
X124460000Y-114300000D01*
X134620000Y-111760000D02*
X124460000Y-111760000D01*
X134620000Y-109220000D02*
X124460000Y-109220000D01*
X134620000Y-106680000D02*
X124460000Y-106680000D01*
X93345000Y-113665000D02*
X94615000Y-113665000D01*
X92075000Y-114935000D02*
X93345000Y-113665000D01*
X84455000Y-114935000D02*
X92075000Y-114935000D01*
X79375000Y-113665000D02*
X83185000Y-113665000D01*
X83185000Y-113665000D02*
X84455000Y-114935000D01*
X84455000Y-119815000D02*
X88065000Y-116205000D01*
X88065000Y-116205000D02*
X94615000Y-116205000D01*
X78105000Y-117475000D02*
X82115000Y-117475000D01*
X82115000Y-117475000D02*
X84455000Y-119815000D01*
X100076000Y-84951370D02*
X100076000Y-96666000D01*
X100076000Y-96666000D02*
X101835000Y-98425000D01*
X101835000Y-98425000D02*
X102235000Y-98425000D01*
X98552000Y-82296000D02*
X98552000Y-83427370D01*
X98552000Y-83427370D02*
X100076000Y-84951370D01*
X102635000Y-98425000D02*
X102235000Y-98425000D01*
X92964000Y-66040000D02*
X98552000Y-71628000D01*
X98552000Y-71628000D02*
X98552000Y-72136000D01*
X92964000Y-68580000D02*
X88392000Y-68580000D01*
X88392000Y-68580000D02*
X85852000Y-66040000D01*
X80264000Y-66040000D02*
X85852000Y-66040000D01*
X74676000Y-66040000D02*
X80264000Y-66040000D01*
X116840000Y-66040000D02*
X115390000Y-66040000D01*
X115390000Y-66040000D02*
X115264990Y-66165010D01*
X115264990Y-66165010D02*
X115264990Y-69066705D01*
X118415010Y-76114990D02*
X116840000Y-77690000D01*
X115264990Y-69066705D02*
X115953295Y-69755010D01*
X115953295Y-69755010D02*
X117536725Y-69755010D01*
X117536725Y-69755010D02*
X118415010Y-70633295D01*
X118415010Y-70633295D02*
X118415010Y-76114990D01*
X116840000Y-77690000D02*
X116840000Y-78740000D01*
X116440000Y-78740000D02*
X116840000Y-78740000D01*
X116840000Y-104140000D02*
X118290000Y-104140000D01*
X118290000Y-104140000D02*
X118415010Y-104014990D01*
X118415010Y-104014990D02*
X118415010Y-96033295D01*
X115264990Y-92615010D02*
X116440000Y-91440000D01*
X118415010Y-96033295D02*
X117536725Y-95155010D01*
X117536725Y-95155010D02*
X115953295Y-95155010D01*
X115953295Y-95155010D02*
X115264990Y-94466705D01*
X115264990Y-94466705D02*
X115264990Y-92615010D01*
X116440000Y-91440000D02*
X116840000Y-91440000D01*
X116840000Y-91440000D02*
X117240000Y-91440000D01*
X88900000Y-95504000D02*
X90645990Y-97249990D01*
X96190010Y-97938295D02*
X96190010Y-107409990D01*
X96190010Y-107409990D02*
X95015000Y-108585000D01*
X90645990Y-97249990D02*
X95501705Y-97249990D01*
X95501705Y-97249990D02*
X96190010Y-97938295D01*
X95015000Y-108585000D02*
X94615000Y-108585000D01*
X88900000Y-95504000D02*
X87768630Y-95504000D01*
X87768630Y-95504000D02*
X86834631Y-94570001D01*
X86834631Y-94570001D02*
X59137001Y-94570001D01*
X59137001Y-94570001D02*
X59055000Y-94488000D01*
X116840000Y-55880000D02*
X117240000Y-55880000D01*
X118415010Y-63986705D02*
X117726705Y-64675010D01*
X117240000Y-55880000D02*
X118415010Y-57055010D01*
X118415010Y-57055010D02*
X118415010Y-63986705D01*
X117726705Y-64675010D02*
X116047870Y-64675010D01*
X116047870Y-64675010D02*
X114764980Y-65957900D01*
X114764980Y-65957900D02*
X114764980Y-69552980D01*
X114764980Y-69552980D02*
X116332000Y-71120000D01*
X116332000Y-71120000D02*
X116840000Y-71120000D01*
D24*
X99160000Y-51208000D02*
X110236000Y-51208000D01*
X110236000Y-51208000D02*
X136332965Y-51208000D01*
X105744000Y-58928000D02*
X110236000Y-54436000D01*
X110236000Y-54436000D02*
X110236000Y-51208000D01*
D25*
X100076000Y-122428000D02*
X101316285Y-122428000D01*
X107155990Y-122460010D02*
X107696000Y-121920000D01*
X101316285Y-122428000D02*
X101348295Y-122460010D01*
X101348295Y-122460010D02*
X107155990Y-122460010D01*
D24*
X99060000Y-123444000D02*
X100076000Y-122428000D01*
X99060000Y-124968000D02*
X99060000Y-123444000D01*
X95887989Y-128140011D02*
X99060000Y-124968000D01*
X61595000Y-123825000D02*
X60269999Y-125150001D01*
X61409009Y-128140011D02*
X95887989Y-128140011D01*
X60269999Y-125150001D02*
X60269999Y-127001001D01*
X60269999Y-127001001D02*
X61409009Y-128140011D01*
D25*
X152400000Y-93980000D02*
X151174999Y-95205001D01*
X151174999Y-95205001D02*
X139909001Y-95205001D01*
X139909001Y-95205001D02*
X139700000Y-94996000D01*
D24*
X139700000Y-54575035D02*
X139700000Y-94996000D01*
X96520000Y-53848000D02*
X99160000Y-51208000D01*
X136332965Y-51208000D02*
X139700000Y-54575035D01*
X85852000Y-58420000D02*
X85852000Y-57120000D01*
X85852000Y-57120000D02*
X90449001Y-52522999D01*
X90449001Y-52522999D02*
X95194999Y-52522999D01*
X95194999Y-52522999D02*
X95670001Y-52998001D01*
X95670001Y-52998001D02*
X96520000Y-53848000D01*
X116840000Y-121920000D02*
X107696000Y-121920000D01*
X107696000Y-124460000D02*
X107696000Y-121920000D01*
X112268000Y-104648000D02*
X114300000Y-106680000D01*
X114300000Y-106680000D02*
X116840000Y-106680000D01*
X113204000Y-96520000D02*
X113204000Y-99996000D01*
X113204000Y-99996000D02*
X113792000Y-100584000D01*
X65532000Y-60960000D02*
X61595000Y-64897000D01*
X61595000Y-64897000D02*
X61595000Y-65405000D01*
X111252000Y-79248000D02*
X113284000Y-81280000D01*
X113284000Y-81280000D02*
X116840000Y-81280000D01*
X112696000Y-71120000D02*
X112696000Y-75612000D01*
X112696000Y-75612000D02*
X112776000Y-75692000D01*
X80264000Y-58420000D02*
X85852000Y-58420000D01*
X74676000Y-58420000D02*
X80264000Y-58420000D01*
X67310000Y-69215000D02*
X67310000Y-64686000D01*
X67310000Y-64686000D02*
X73576000Y-58420000D01*
X73576000Y-58420000D02*
X74676000Y-58420000D01*
X61595000Y-90805000D02*
X59055000Y-90805000D01*
X102235000Y-113665000D02*
X101835000Y-113665000D01*
X101835000Y-113665000D02*
X96755000Y-108585000D01*
X96755000Y-108585000D02*
X94615000Y-108585000D01*
X113204000Y-96520000D02*
X116840000Y-96520000D01*
X112696000Y-71120000D02*
X116840000Y-71120000D01*
X59055000Y-121285000D02*
X59055000Y-94488000D01*
X59055000Y-94488000D02*
X59055000Y-90805000D01*
X61595000Y-65405000D02*
X64550000Y-65405000D01*
X64550000Y-65405000D02*
X67310000Y-68165000D01*
X67310000Y-68165000D02*
X67310000Y-69215000D01*
X90170000Y-108585000D02*
X94615000Y-108585000D01*
X59055000Y-90805000D02*
X59055000Y-66845000D01*
X59055000Y-66845000D02*
X60495000Y-65405000D01*
X60495000Y-65405000D02*
X61595000Y-65405000D01*
X61595000Y-123825000D02*
X59055000Y-121285000D01*
X74295000Y-90805000D02*
X69215000Y-90805000D01*
X69215000Y-90805000D02*
X61595000Y-90805000D01*
M02*
